<svg xmlns="http://www.w3.org/2000/svg" xmlns:xlink="http://www.w3.org/1999/xlink" version="1.1" x="0px" y="0px" viewBox="0 0 98 122.5" style="enable-background:new 0 0 98 98;" xml:space="preserve"><title>27</title><path d="M85.7,31.1l-10.3-11c-1.3-1.4-3.2-2.2-5.1-2.2H50v-6c0-3.9-3.1-7-7-7h-3c-3.9,0-7,3.1-7,7v6H17.4c-3.9,0-7,3.1-7,7v22  c0.1,3.8,3.2,6.9,7,7H33v32.2c0,3.9,3.1,7,7,7h3c3.9,0,7-3.1,7-7V53.9h20.3c1.9,0,3.8-0.8,5.1-2.2l10.3-11  C88.2,38,88.2,33.8,85.7,31.1z M37,11.9c-0.1-1.6,1.2-2.9,2.8-3c0.1,0,0.1,0,0.2,0h3c1.7,0,3,1.3,3,3v6h-9V11.9z M46,86.1  c0,1.7-1.3,3-3,3h-3c-1.6,0.1-2.9-1.2-3-2.8c0-0.1,0-0.1,0-0.2V53.9h9V86.1z M82.8,37.9l-10.4,11c-0.5,0.6-1.3,1-2.1,1H17.4  c-1.6-0.1-2.9-1.4-3-3v-22c0-1.7,1.3-3,3-3h52.9c0.8,0,1.6,0.3,2.1,0.9l10.4,11C83.8,35,83.8,36.7,82.8,37.9z"/></svg>