<?xml version="1.0" encoding="UTF-8"?>
<svg width="800px" height="944px" viewBox="0 0 800 944" version="1.1" xmlns="http://www.w3.org/2000/svg" xmlns:xlink="http://www.w3.org/1999/xlink">
    <!-- Generator: Sketch 46.2 (44496) - http://www.bohemiancoding.com/sketch -->
    <title>Group 4</title>
    <desc>Created with Sketch.</desc>
    <defs></defs>
    <g id="Log-In" stroke="none" stroke-width="1" fill="none" fill-rule="evenodd" opacity="0.699999988">
        <g id="Desktop-|-Log-in-Unfilled">
            <g id="Group-4">
                <g transform="translate(-1094.000000, -306.000000)">
                    <path d="M1922.70825,0 L1522.44479,975.266913 C1467.01072,1110.32024 1335.22308,1198.54247 1188.90507,1198.54247 L0,1198.69149 L400.276643,223.437717 C455.71071,88.3712451 587.498353,0.149016157 733.803188,0.149016157 L1922.70825,0 Z" id="Base-Copy-7" fill="#94C5FF" opacity="0.100000001"></path>
                    <path d="M2851.38343,880.016429 L2626.04653,1429.06383 C2594.83874,1505.095 2520.64606,1554.76159 2438.2732,1554.76159 L916,1554.74516 L1141.34431,1005.70516 C1172.55211,929.666594 1246.74478,880 1329.11022,880 L2851.38343,880.016429 Z" id="Base-Copy-8" fill-opacity="0.400000006" fill="#1A32AF" opacity="0.310190229"></path>
                    <path d="M2526.04103,595 L2390.67965,924.81646 C2371.93291,970.488892 2327.36488,1000.32395 2277.88295,1000.32395 L1649,1000.32395 L1784.36584,670.511932 C1803.11257,624.835056 1847.68061,595 1897.15809,595 L2526.04103,595 Z" id="Base-Copy-9" fill-opacity="0.200000018" fill="#0092FF"></path>
                    <path d="M2509.10702,1074 L2373.74564,1403.81646 C2354.9989,1449.48889 2310.43087,1479.32395 2260.94894,1479.32395 L311,1479.32395 L446.365841,1149.51193 C465.112573,1103.83506 509.680612,1074 559.158085,1074 L2509.10702,1074 Z" id="Base-Copy-10" fill-opacity="0.200000018" fill="#0092FF" opacity="0.400000006"></path>
                </g>
            </g>
        </g>
    </g>
</svg>