<svg xmlns="http://www.w3.org/2000/svg" data-name="Layer 1" viewBox="0 0 100 125" x="0px" y="0px"><title>finance</title><path d="M65.78,39.77v-2c0-7.23-6-13.21-13.78-14.1V18H48v5.67c-7.76.89-13.78,6.87-13.78,14.1,0,7.66,6.85,10.76,13.78,13.58V72.3c-5.54-.83-9.78-5-9.78-10.07v-2h-4v2c0,7.23,6,13.21,13.78,14.1V82h4V76.33c7.76-.89,13.78-6.87,13.78-14.1,0-7.66-6.85-10.76-13.78-13.58V27.7c5.54.83,9.78,5,9.78,10.07v2ZM48,47c-6.14-2.59-9.78-4.84-9.78-9.24,0-5.05,4.24-9.24,9.78-10.07ZM61.78,62.23c0,5-4.24,9.24-9.78,10.07V53C58.14,55.58,61.78,57.83,61.78,62.23Z"/></svg>