<svg xmlns:dc="http://purl.org/dc/elements/1.1/" xmlns:cc="http://creativecommons.org/ns#" xmlns:rdf="http://www.w3.org/1999/02/22-rdf-syntax-ns#" xmlns:svg="http://www.w3.org/2000/svg" xmlns="http://www.w3.org/2000/svg" xmlns:sodipodi="http://sodipodi.sourceforge.net/DTD/sodipodi-0.dtd" xmlns:inkscape="http://www.inkscape.org/namespaces/inkscape" version="1.1" x="0px" y="0px" viewBox="0 0 80 100"><g transform="translate(0,-972.36218)"><path style="text-indent:0;text-transform:none;direction:ltr;block-progression:tb;baseline-shift:baseline;color:#000000;enable-background:accumulate;" d="m 48.9062,998.36439 c -0.3847,0.018 -0.7619,0.1584 -1.0937,0.4062 -0.8847,0.661 -1.0675,1.89641 -0.4063,2.78081 l 3.5938,4.8117 -26,0 c -1.1046,0 -2,0.8955 -2,1.9997 0,1.1042 0.8954,1.9997 2,1.9997 l 30,0 c 1.1046,0 2,-0.8955 2,-1.9997 4e-4,-0.6319 -0.323,-0.9653 -0.5938,-1.406 l -5.7812,-7.78001 c -0.4134,-0.5529 -1.0774,-0.843 -1.7188,-0.8124 z M 25,1014.3619 c -1.1046,0 -2,0.8954 -2,1.9997 -4e-4,0.6319 0.323,0.9653 0.5938,1.406 l 5.7812,7.78 c 0.4134,0.5528 1.0774,0.843 1.7188,0.8124 0.3847,-0.018 0.7619,-0.1584 1.0937,-0.4062 0.8847,-0.661 1.0675,-1.8964 0.4063,-2.7808 L 29,1018.3613 l 26,0 c 1.1046,0 2,-0.8955 2,-1.9997 0,-1.1043 -0.8954,-1.9997 -2,-1.9997 l -30,0 z" fill="#000000" fill-opacity="1" stroke="none" marker="none" visibility="visible" display="inline" overflow="visible"/></g><text x="0" y="95" fill="#000000" font-size="5px" font-weight="bold" font-family="'Helvetica Neue', Helvetica, Arial-Unicode, Arial, Sans-serif">Created by Aybige</text><text x="0" y="100" fill="#000000" font-size="5px" font-weight="bold" font-family="'Helvetica Neue', Helvetica, Arial-Unicode, Arial, Sans-serif">from the Noun Project</text></svg>