<svg xmlns="http://www.w3.org/2000/svg" xmlns:xlink="http://www.w3.org/1999/xlink" version="1.1" x="0px" y="0px" viewBox="0 0 42 52.5" style="enable-background:new 0 0 42 42;" xml:space="preserve"><style type="text/css">
	.st0{fill:#020202;}
	.st1{fill:none;stroke:#231F20;stroke-width:2;stroke-linecap:round;stroke-linejoin:round;stroke-miterlimit:10;}
</style><path d="M34,18L34,18c0-0.6-0.4-1-1-1h-2v-7c0-0.6-0.4-1-1-1h0c-0.6,0-1,0.4-1,1v7h-8.3l-4.9-8H13v8h-2  c-0.6,0-1,0.4-1,1v0c0,0.6,0.4,1,1,1h2v4h-2c-0.6,0-1,0.4-1,1v0c0,0.6,0.4,1,1,1h2v7c0,0.6,0.4,1,1,1h0c0.6,0,1-0.4,1-1v-7h8.3  l4.9,8H31v-8h2c0.6,0,1-0.4,1-1v0c0-0.6-0.4-1-1-1h-2v-4h2C33.6,19,34,18.6,34,18z M15,11.5l3.4,5.5H15V11.5z M15,23v-4h4.6l2.5,4  H15z M29,30.5L25.6,25H29V30.5z M29,23h-4.6l-2.5-4H29V23z"/></svg>